<svg width="192" height="192" viewBox="0 0 192 192" fill="none" xmlns="http://www.w3.org/2000/svg">
  <rect width="192" height="192" rx="24" fill="#3b82f6"/>
  <g transform="translate(36, 36)">
    <rect x="0" y="0" width="24" height="96" rx="3" fill="white" fill-opacity="0.9"/>
    <rect x="3" y="3" width="18" height="12" rx="1.5" fill="#3b82f6"/>
    <rect x="3" y="16.799999999999997" width="18" height="9.600000000000001" rx="1.5" fill="#e5e7eb"/>
    
    <rect x="28.799999999999997" y="0" width="24" height="96" rx="3" fill="white" fill-opacity="0.9"/>
    <rect x="31.799999999999997" y="3" width="18" height="9.600000000000001" rx="1.5" fill="#10b981"/>
    <rect x="31.799999999999997" y="14.399999999999999" width="18" height="12" rx="1.5" fill="#e5e7eb"/>
    
    <rect x="57.599999999999994" y="0" width="24" height="96" rx="3" fill="white" fill-opacity="0.9"/>
    <rect x="60.599999999999994" y="3" width="18" height="7.199999999999999" rx="1.5" fill="#f59e0b"/>
    <rect x="60.599999999999994" y="12" width="18" height="9.600000000000001" rx="1.5" fill="#e5e7eb"/>
    
    <rect x="86.4" y="0" width="24" height="96" rx="3" fill="white" fill-opacity="0.9"/>
    <rect x="89.4" y="3" width="18" height="9.600000000000001" rx="1.5" fill="#ef4444"/>
  </g>
  <text x="96" y="168" font-family="Arial, sans-serif" font-size="18" font-weight="bold" text-anchor="middle" fill="white">VIDEC</text>
</svg>