<svg width="384" height="384" viewBox="0 0 384 384" fill="none" xmlns="http://www.w3.org/2000/svg">
  <rect width="384" height="384" rx="48" fill="#3b82f6"/>
  <g transform="translate(72, 72)">
    <rect x="0" y="0" width="48" height="192" rx="6" fill="white" fill-opacity="0.9"/>
    <rect x="6" y="6" width="36" height="24" rx="3" fill="#3b82f6"/>
    <rect x="6" y="33.599999999999994" width="36" height="19.200000000000003" rx="3" fill="#e5e7eb"/>
    
    <rect x="57.599999999999994" y="0" width="48" height="192" rx="6" fill="white" fill-opacity="0.9"/>
    <rect x="63.599999999999994" y="6" width="36" height="19.200000000000003" rx="3" fill="#10b981"/>
    <rect x="63.599999999999994" y="28.799999999999997" width="36" height="24" rx="3" fill="#e5e7eb"/>
    
    <rect x="115.19999999999999" y="0" width="48" height="192" rx="6" fill="white" fill-opacity="0.9"/>
    <rect x="121.19999999999999" y="6" width="36" height="14.399999999999999" rx="3" fill="#f59e0b"/>
    <rect x="121.19999999999999" y="24" width="36" height="19.200000000000003" rx="3" fill="#e5e7eb"/>
    
    <rect x="172.8" y="0" width="48" height="192" rx="6" fill="white" fill-opacity="0.9"/>
    <rect x="178.8" y="6" width="36" height="19.200000000000003" rx="3" fill="#ef4444"/>
  </g>
  <text x="192" y="336" font-family="Arial, sans-serif" font-size="36" font-weight="bold" text-anchor="middle" fill="white">VIDEC</text>
</svg>