<svg width="512" height="512" viewBox="0 0 512 512" fill="none" xmlns="http://www.w3.org/2000/svg">
  <rect width="512" height="512" rx="64" fill="#3b82f6"/>
  <g transform="translate(96, 96)">
    <rect x="0" y="0" width="64" height="256" rx="8" fill="white" fill-opacity="0.9"/>
    <rect x="8" y="8" width="48" height="32" rx="4" fill="#3b82f6"/>
    <rect x="8" y="44.8" width="48" height="25.6" rx="4" fill="#e5e7eb"/>
    
    <rect x="76.8" y="0" width="64" height="256" rx="8" fill="white" fill-opacity="0.9"/>
    <rect x="84.8" y="8" width="48" height="25.6" rx="4" fill="#10b981"/>
    <rect x="84.8" y="38.4" width="48" height="32" rx="4" fill="#e5e7eb"/>
    
    <rect x="153.6" y="0" width="64" height="256" rx="8" fill="white" fill-opacity="0.9"/>
    <rect x="161.6" y="8" width="48" height="19.2" rx="4" fill="#f59e0b"/>
    <rect x="161.6" y="32" width="48" height="25.6" rx="4" fill="#e5e7eb"/>
    
    <rect x="230.4" y="0" width="64" height="256" rx="8" fill="white" fill-opacity="0.9"/>
    <rect x="238.4" y="8" width="48" height="25.6" rx="4" fill="#ef4444"/>
  </g>
  <text x="256" y="448" font-family="Arial, sans-serif" font-size="48" font-weight="bold" text-anchor="middle" fill="white">VIDEC</text>
</svg>