<svg width="167" height="167" viewBox="0 0 167 167" fill="none" xmlns="http://www.w3.org/2000/svg">
  <rect width="167" height="167" rx="20.875" fill="#3b82f6"/>
  <g transform="translate(31.3125, 31.3125)">
    <rect x="0" y="0" width="20.875" height="83.5" rx="2.609375" fill="white" fill-opacity="0.9"/>
    <rect x="2.609375" y="2.609375" width="15.65625" height="10.4375" rx="1.3046875" fill="#3b82f6"/>
    <rect x="2.609375" y="14.612499999999999" width="15.65625" height="8.35" rx="1.3046875" fill="#e5e7eb"/>
    
    <rect x="25.05" y="0" width="20.875" height="83.5" rx="2.609375" fill="white" fill-opacity="0.9"/>
    <rect x="27.659375" y="2.609375" width="15.65625" height="8.35" rx="1.3046875" fill="#10b981"/>
    <rect x="27.659375" y="12.525" width="15.65625" height="10.4375" rx="1.3046875" fill="#e5e7eb"/>
    
    <rect x="50.1" y="0" width="20.875" height="83.5" rx="2.609375" fill="white" fill-opacity="0.9"/>
    <rect x="52.709375" y="2.609375" width="15.65625" height="6.2625" rx="1.3046875" fill="#f59e0b"/>
    <rect x="52.709375" y="10.4375" width="15.65625" height="8.35" rx="1.3046875" fill="#e5e7eb"/>
    
    <rect x="75.15" y="0" width="20.875" height="83.5" rx="2.609375" fill="white" fill-opacity="0.9"/>
    <rect x="77.759375" y="2.609375" width="15.65625" height="8.35" rx="1.3046875" fill="#ef4444"/>
  </g>
  <text x="83.5" y="146.125" font-family="Arial, sans-serif" font-size="15.65625" font-weight="bold" text-anchor="middle" fill="white">VIDEC</text>
</svg>