<svg width="96" height="96" viewBox="0 0 96 96" fill="none" xmlns="http://www.w3.org/2000/svg">
  <rect width="96" height="96" rx="12" fill="#3b82f6"/>
  <g transform="translate(18, 18)">
    <rect x="0" y="0" width="12" height="48" rx="1.5" fill="white" fill-opacity="0.9"/>
    <rect x="1.5" y="1.5" width="9" height="6" rx="0.75" fill="#3b82f6"/>
    <rect x="1.5" y="8.399999999999999" width="9" height="4.800000000000001" rx="0.75" fill="#e5e7eb"/>
    
    <rect x="14.399999999999999" y="0" width="12" height="48" rx="1.5" fill="white" fill-opacity="0.9"/>
    <rect x="15.899999999999999" y="1.5" width="9" height="4.800000000000001" rx="0.75" fill="#10b981"/>
    <rect x="15.899999999999999" y="7.199999999999999" width="9" height="6" rx="0.75" fill="#e5e7eb"/>
    
    <rect x="28.799999999999997" y="0" width="12" height="48" rx="1.5" fill="white" fill-opacity="0.9"/>
    <rect x="30.299999999999997" y="1.5" width="9" height="3.5999999999999996" rx="0.75" fill="#f59e0b"/>
    <rect x="30.299999999999997" y="6" width="9" height="4.800000000000001" rx="0.75" fill="#e5e7eb"/>
    
    <rect x="43.2" y="0" width="12" height="48" rx="1.5" fill="white" fill-opacity="0.9"/>
    <rect x="44.7" y="1.5" width="9" height="4.800000000000001" rx="0.75" fill="#ef4444"/>
  </g>
  <text x="48" y="84" font-family="Arial, sans-serif" font-size="9" font-weight="bold" text-anchor="middle" fill="white">VIDEC</text>
</svg>