<svg width="512" height="512" viewBox="0 0 512 512" fill="none" xmlns="http://www.w3.org/2000/svg">
  <!-- Background -->
  <rect width="512" height="512" rx="64" fill="#3b82f6"/>
  
  <!-- Kanban Board Icon -->
  <g transform="translate(96, 96)">
    <!-- Column 1 -->
    <rect x="0" y="0" width="80" height="320" rx="8" fill="white" fill-opacity="0.9"/>
    <rect x="8" y="8" width="64" height="40" rx="4" fill="#3b82f6"/>
    <rect x="8" y="56" width="64" height="32" rx="4" fill="#e5e7eb"/>
    <rect x="8" y="96" width="64" height="24" rx="4" fill="#e5e7eb"/>
    
    <!-- Column 2 -->
    <rect x="96" y="0" width="80" height="320" rx="8" fill="white" fill-opacity="0.9"/>
    <rect x="104" y="8" width="64" height="32" rx="4" fill="#10b981"/>
    <rect x="104" y="48" width="64" height="40" rx="4" fill="#e5e7eb"/>
    <rect x="104" y="96" width="64" height="32" rx="4" fill="#e5e7eb"/>
    
    <!-- Column 3 -->
    <rect x="192" y="0" width="80" height="320" rx="8" fill="white" fill-opacity="0.9"/>
    <rect x="200" y="8" width="64" height="24" rx="4" fill="#f59e0b"/>
    <rect x="200" y="40" width="64" height="32" rx="4" fill="#e5e7eb"/>
    <rect x="200" y="80" width="64" height="40" rx="4" fill="#e5e7eb"/>
    <rect x="200" y="128" width="64" height="24" rx="4" fill="#e5e7eb"/>
    
    <!-- Column 4 -->
    <rect x="288" y="0" width="80" height="320" rx="8" fill="white" fill-opacity="0.9"/>
    <rect x="296" y="8" width="64" height="32" rx="4" fill="#ef4444"/>
    <rect x="296" y="48" width="64" height="24" rx="4" fill="#e5e7eb"/>
  </g>
  
  <!-- VIDEC Text -->
  <text x="256" y="450" font-family="Arial, sans-serif" font-size="48" font-weight="bold" text-anchor="middle" fill="white">VIDEC</text>
</svg>
