<svg width="72" height="72" viewBox="0 0 72 72" fill="none" xmlns="http://www.w3.org/2000/svg">
  <rect width="72" height="72" rx="9" fill="#3b82f6"/>
  <g transform="translate(13.5, 13.5)">
    <rect x="0" y="0" width="9" height="36" rx="1.125" fill="white" fill-opacity="0.9"/>
    <rect x="1.125" y="1.125" width="6.75" height="4.5" rx="0.5625" fill="#3b82f6"/>
    <rect x="1.125" y="6.3" width="6.75" height="3.6" rx="0.5625" fill="#e5e7eb"/>
    
    <rect x="10.799999999999999" y="0" width="9" height="36" rx="1.125" fill="white" fill-opacity="0.9"/>
    <rect x="11.924999999999999" y="1.125" width="6.75" height="3.6" rx="0.5625" fill="#10b981"/>
    <rect x="11.924999999999999" y="5.3999999999999995" width="6.75" height="4.5" rx="0.5625" fill="#e5e7eb"/>
    
    <rect x="21.599999999999998" y="0" width="9" height="36" rx="1.125" fill="white" fill-opacity="0.9"/>
    <rect x="22.724999999999998" y="1.125" width="6.75" height="2.6999999999999997" rx="0.5625" fill="#f59e0b"/>
    <rect x="22.724999999999998" y="4.5" width="6.75" height="3.6" rx="0.5625" fill="#e5e7eb"/>
    
    <rect x="32.4" y="0" width="9" height="36" rx="1.125" fill="white" fill-opacity="0.9"/>
    <rect x="33.525" y="1.125" width="6.75" height="3.6" rx="0.5625" fill="#ef4444"/>
  </g>
  <text x="36" y="63" font-family="Arial, sans-serif" font-size="6.75" font-weight="bold" text-anchor="middle" fill="white">VIDEC</text>
</svg>