<svg width="152" height="152" viewBox="0 0 152 152" fill="none" xmlns="http://www.w3.org/2000/svg">
  <rect width="152" height="152" rx="19" fill="#3b82f6"/>
  <g transform="translate(28.5, 28.5)">
    <rect x="0" y="0" width="19" height="76" rx="2.375" fill="white" fill-opacity="0.9"/>
    <rect x="2.375" y="2.375" width="14.25" height="9.5" rx="1.1875" fill="#3b82f6"/>
    <rect x="2.375" y="13.299999999999999" width="14.25" height="7.6000000000000005" rx="1.1875" fill="#e5e7eb"/>
    
    <rect x="22.8" y="0" width="19" height="76" rx="2.375" fill="white" fill-opacity="0.9"/>
    <rect x="25.175" y="2.375" width="14.25" height="7.6000000000000005" rx="1.1875" fill="#10b981"/>
    <rect x="25.175" y="11.4" width="14.25" height="9.5" rx="1.1875" fill="#e5e7eb"/>
    
    <rect x="45.6" y="0" width="19" height="76" rx="2.375" fill="white" fill-opacity="0.9"/>
    <rect x="47.975" y="2.375" width="14.25" height="5.7" rx="1.1875" fill="#f59e0b"/>
    <rect x="47.975" y="9.5" width="14.25" height="7.6000000000000005" rx="1.1875" fill="#e5e7eb"/>
    
    <rect x="68.4" y="0" width="19" height="76" rx="2.375" fill="white" fill-opacity="0.9"/>
    <rect x="70.775" y="2.375" width="14.25" height="7.6000000000000005" rx="1.1875" fill="#ef4444"/>
  </g>
  <text x="76" y="133" font-family="Arial, sans-serif" font-size="14.25" font-weight="bold" text-anchor="middle" fill="white">VIDEC</text>
</svg>