<svg width="144" height="144" viewBox="0 0 144 144" fill="none" xmlns="http://www.w3.org/2000/svg">
  <rect width="144" height="144" rx="18" fill="#3b82f6"/>
  <g transform="translate(27, 27)">
    <rect x="0" y="0" width="18" height="72" rx="2.25" fill="white" fill-opacity="0.9"/>
    <rect x="2.25" y="2.25" width="13.5" height="9" rx="1.125" fill="#3b82f6"/>
    <rect x="2.25" y="12.6" width="13.5" height="7.2" rx="1.125" fill="#e5e7eb"/>
    
    <rect x="21.599999999999998" y="0" width="18" height="72" rx="2.25" fill="white" fill-opacity="0.9"/>
    <rect x="23.849999999999998" y="2.25" width="13.5" height="7.2" rx="1.125" fill="#10b981"/>
    <rect x="23.849999999999998" y="10.799999999999999" width="13.5" height="9" rx="1.125" fill="#e5e7eb"/>
    
    <rect x="43.199999999999996" y="0" width="18" height="72" rx="2.25" fill="white" fill-opacity="0.9"/>
    <rect x="45.449999999999996" y="2.25" width="13.5" height="5.3999999999999995" rx="1.125" fill="#f59e0b"/>
    <rect x="45.449999999999996" y="9" width="13.5" height="7.2" rx="1.125" fill="#e5e7eb"/>
    
    <rect x="64.8" y="0" width="18" height="72" rx="2.25" fill="white" fill-opacity="0.9"/>
    <rect x="67.05" y="2.25" width="13.5" height="7.2" rx="1.125" fill="#ef4444"/>
  </g>
  <text x="72" y="126" font-family="Arial, sans-serif" font-size="13.5" font-weight="bold" text-anchor="middle" fill="white">VIDEC</text>
</svg>